Coordinates
version=1
nRows=10
nColumns=34
inDegrees=yes

Units are S.I. units (second, meters, Newtons, ...)
If the header above contains a line with 'inDegrees', this indicates whether rotational values are in degrees (yes) or radians (no).

endheader
time	pelvis_tilt	pelvis_list	pelvis_rotation	pelvis_tx	pelvis_ty	pelvis_tz	hip_flexion_r	hip_adduction_r	hip_rotation_r	knee_angle_r	ankle_angle_r	subtalar_angle_r	mtp_angle_r	hip_flexion_l	hip_adduction_l	hip_rotation_l	knee_angle_l	ankle_angle_l	subtalar_angle_l	mtp_angle_l	lumbar_extension	lumbar_bending	lumbar_rotation	arm_flex_r	arm_add_r	arm_rot_r	elbow_flex_r	pro_sup_r	arm_flex_l	arm_add_l	arm_rot_l	elbow_flex_l	pro_sup_l
      1.98333330	      1.82429387	      1.34831610	      1.63994811	     -0.21211479	      0.92473592	     -0.05766045	      0.39461088	     -2.28640764	    -22.00912992	      0.00000000	      3.80000855	     -0.71242769	      0.00000000	     -0.12327367	     -0.25834406	    -25.68025520	      0.00000000	      2.76421940	     -0.77479305	      0.00000000	     -5.19659695	     -0.92883152	     -0.19112440	      4.25996437	     -8.14152919	      7.14970033	     28.84217098	     79.13391119	      6.79996847	     -6.93544917	      3.60172714	     23.65020772	     72.42843812
      2.00000000	      1.83679226	      1.35344309	      1.63466492	     -0.21310947	      0.92586671	     -0.05754838	      0.41323808	     -2.28447045	    -22.01113922	      0.00000000	      3.80375330	     -0.71525500	      0.00000000	     -0.11739618	     -0.25156833	    -25.68213875	      0.00000000	      2.76550499	     -0.77672571	      0.00000000	     -5.18836675	     -0.92658762	     -0.18894394	      4.25694116	     -8.13717163	      7.15016177	     28.84246964	     79.13240366	      6.79133497	     -6.93904856	      3.60128304	     23.64575128	     72.42692884
      2.01666670	      1.77206448	      1.39406772	      1.51538957	     -0.21351832	      0.92617663	     -0.05757029	      0.55697691	     -2.32428733	    -22.05299464	      0.00000000	      3.84142437	     -0.75174500	      0.00000000	     -0.03279074	     -0.19714153	    -25.74807331	      0.00000000	      2.76460070	     -0.82357849	      0.00000000	     -5.18614786	     -0.90849220	     -0.15438263	      4.25636841	     -8.06388675	      7.15781922	     28.85302650	     79.11137291	      6.70091019	     -6.99672883	      3.59363519	     23.57869072	     72.40539672
      2.03333330	      1.78953881	      1.38979246	      1.52125625	     -0.21321726	      0.92599402	     -0.05793323	      0.57906996	     -2.31608191	    -22.05064631	      0.00000000	      3.84146490	     -0.75094512	      0.00000000	     -0.02875951	     -0.18714697	    -25.75463499	      0.00000000	      2.76350942	     -0.82696693	      0.00000000	     -5.18169948	     -0.91396881	     -0.15425599	      4.25951630	     -8.06263347	      7.15760216	     28.85435154	     79.11016354	      6.69974580	     -6.99741886	      3.59353887	     23.57676058	     72.40424173
      2.05000000	      1.78961270	      1.38057359	      1.51987535	     -0.21228758	      0.92550804	     -0.05851680	      0.58653499	     -2.31606629	    -22.04911668	      0.00000000	      3.84068299	     -0.75021819	      0.00000000	     -0.02367921	     -0.17972025	    -25.76143547	      0.00000000	      2.76172527	     -0.83057514	      0.00000000	     -5.18075999	     -0.91738144	     -0.15419126	      4.26374205	     -8.06049197	      7.15749814	     28.85584518	     79.10894923	      6.69999236	     -6.99832786	      3.59337196	     23.57488852	     72.40307122
      2.06666670	      1.77949476	      1.36702416	      1.51572243	     -0.21165826	      0.92463503	     -0.05904230	      0.58825210	     -2.32280946	    -22.04797389	      0.00000000	      3.83976072	     -0.74954994	      0.00000000	     -0.02374400	     -0.17096060	    -25.76938825	      0.00000000	      2.76029482	     -0.83517065	      0.00000000	     -5.17864103	     -0.91684172	     -0.15414951	      4.26721258	     -8.05845073	      7.15734526	     28.85712797	     79.10749726	      6.69857112	     -6.99837052	      3.59330038	     23.57232425	     72.40169934
      2.08333330	      1.76299929	      1.35219534	      1.51278341	     -0.21131668	      0.92385741	     -0.05930601	      0.58621790	     -2.33428194	    -22.04687338	      0.00000000	      3.83950316	     -0.74917870	      0.00000000	     -0.03197937	     -0.16181299	    -25.77606899	      0.00000000	      2.76029956	     -0.83972575	      0.00000000	     -5.17425506	     -0.91211525	     -0.15388008	      4.26914833	     -8.05744803	      7.15709378	     28.85798473	     79.10617162	      6.69563777	     -6.99729826	      3.59335850	     23.56988690	     72.40047966
      2.10000000	      1.75477715	      1.34339826	      1.51358247	     -0.21140187	      0.92363225	     -0.05913303	      0.58365333	     -2.33956365	    -22.04666144	      0.00000000	      3.83956623	     -0.74916202	      0.00000000	     -0.03739895	     -0.15781125	    -25.77707481	      0.00000000	      2.76048282	     -0.84047544	      0.00000000	     -5.17321494	     -0.91087802	     -0.15377784	      4.26930227	     -8.05747654	      7.15702995	     28.85807541	     79.10597380	      6.69493407	     -6.99694436	      3.59338945	     23.56950232	     72.40030315
      2.11666670	      1.73911661	      1.37561728	      1.52860517	     -0.21055423	      0.92404569	     -0.05923765	      0.54153641	     -2.41826979	    -22.00771838	      0.00000000	      3.85720468	     -0.74191001	      0.00000000	     -0.08470043	     -0.08813199	    -25.84917212	      0.00000000	      2.80425500	     -0.91319945	      0.00000000	     -5.00821638	     -0.77554495	     -0.13770902	      4.25156418	     -8.06725904	      7.15055827	     28.86106377	     79.08734271	      6.58896384	     -6.96221654	      3.59634141	     23.52585504	     72.38361009
      2.13333330	      1.71555193	      1.36811646	      1.52705401	     -0.20990499	      0.92433335	     -0.05910041	      0.54051995	     -2.42104762	    -22.00460387	      0.00000000	      3.85902027	     -0.74155502	      0.00000000	     -0.10407322	     -0.09370261	    -25.85109002	      0.00000000	      2.80707385	     -0.91705047	      0.00000000	     -5.00255636	     -0.78049323	     -0.14115036	      4.24846060	     -8.07052523	      7.14955546	     28.86017737	     79.08590169	      6.58301621	     -6.95810511	      3.59683757	     23.52282102	     72.38237061
